<svg width="135" height="31" viewBox="0 0 135 31" fill="none" xmlns="http://www.w3.org/2000/svg">
<g clip-path="url(#clip0_2101_83)">
<path fill-rule="evenodd" clip-rule="evenodd" d="M14 29C21.732 29 28 22.732 28 15C28 7.26801 21.732 1 14 1C6.26801 1 0 7.26801 0 15C0 22.732 6.26801 29 14 29ZM14.6093 8.72859H16.0226V23.2646H18.849V6.50781H14.6093C10.3697 6.50781 8.1489 8.72859 8.1489 11.9588C8.1489 14.5834 9.36023 15.9966 11.581 17.6117L7.74512 23.2646H10.9753L15.0131 17.006L13.5999 15.9966C11.7829 14.7853 10.9753 13.7758 10.9753 11.7569C10.9753 9.93993 12.1867 8.72859 14.6093 8.72859Z" fill="#121212"/>
</g>
<path d="M43.4695 25.3009C45.7263 25.3009 47.2609 24.4885 48.1937 23.8566V20.9377C46.9901 21.8104 45.6661 22.4724 43.7403 22.4724C40.4303 22.4724 38.8656 19.7943 38.8656 14.5585C38.8656 9.17226 40.3701 6.61455 43.9209 6.61455C45.5758 6.61455 47.1105 7.33673 48.1937 8.02881V5.11001C47.2308 4.41792 45.6661 3.78602 43.7403 3.78602C38.1735 3.78602 35.1644 7.87836 35.1644 14.5585C35.1644 21.4192 38.2939 25.3009 43.4695 25.3009ZM60.3871 12.6929V9.86435H48.3809V12.6929H52.5936V25H56.1744V12.6929H60.3871ZM72.9102 14.6789C72.9102 11.0078 71.0446 9.62362 67.2532 9.62362C64.876 9.62362 63.0104 10.3759 61.9271 11.0078V13.9868C62.89 13.2646 64.9964 12.4822 66.8319 12.4822C68.5471 12.4822 69.3294 13.0841 69.3294 14.709V15.5515H68.7577C63.2812 15.5515 60.8438 17.3569 60.8438 20.4262C60.8438 23.4955 62.7095 25.2106 65.4778 25.2106C67.5842 25.2106 68.4869 24.5185 69.179 23.7964H69.3294C69.3595 24.1875 69.4799 24.6991 69.6003 25H73.0908C72.9704 23.7663 72.9102 22.5326 72.9102 21.2988V14.6789ZM69.3294 21.3891C68.8781 22.0511 68.0355 22.5927 66.7717 22.5927C65.2672 22.5927 64.5149 21.69 64.5149 20.3359C64.5149 18.5606 65.7486 17.9287 68.8179 17.9287H69.3294V21.3891ZM84.1545 9.86435V15.8524H79.3701V9.86435H75.7893V25H79.3701V18.6809H84.1545V25H87.7353V9.86435H84.1545ZM90.7465 25H100.827V28.4604H104.137V22.1715H102.542V9.86435H98.9613V22.1715H94.3273V9.86435H90.7465V25ZM106.027 9.86435V25H109.126L114.663 15.6418V25H118.154V9.86435H115.054L109.518 19.2226V9.86435H106.027ZM120.107 25H123.778L126.667 20.0651H128.382V25H131.963V9.86435H126.487C122.996 9.86435 120.499 11.6397 120.499 14.8895C120.499 17.1764 121.582 18.6208 123.508 19.2828L120.107 25ZM126.757 12.6929H128.382V17.4472H126.667C125.042 17.4472 124.14 16.7551 124.14 15.0099C124.14 13.3549 125.193 12.6929 126.757 12.6929Z" fill="#121212"/>
<defs>
<clipPath id="clip0_2101_83">
<rect y="0.910156" width="27.928" height="27.928" rx="13.964" fill="white"/>
</clipPath>
</defs>
</svg>
