<svg width="40" height="40" viewBox="0 0 40 40" fill="none" xmlns="http://www.w3.org/2000/svg">
<path fill-rule="evenodd" clip-rule="evenodd" d="M20 40C8.95431 40 0 31.0457 0 20C2.01066e-06 8.9543 8.95432 -2.01871e-06 20 0C31.0457 0 40 8.95431 40 20C40 31.0457 31.0457 40 20 40ZM29.2048 15.1366C29.825 15.6225 30.3838 16.1821 30.8689 16.8033C31.1611 17.2286 31.3753 17.7027 31.5013 18.2033C31.6498 18.9912 31.7001 19.7946 31.651 20.5949V24.3616C31.651 26.3366 31.651 27.3199 31.2766 28.0783C31.1351 28.3578 30.9583 28.6158 30.7518 28.8465C30.473 29.1605 30.1386 29.4237 29.7629 29.6213C29.0224 30.0047 28.0489 30.0047 26.1103 30.0047H26.1102H24.339L24.3393 30.0059H13.8971H13.8971C11.9584 30.0059 10.9849 30.0059 10.2444 29.6226C9.96272 29.4737 9.70397 29.2886 9.47404 29.0733C9.17121 28.79 8.91829 28.4542 8.72871 28.0797C8.71763 28.0572 8.70687 28.0346 8.69643 28.0117C8.35365 27.2621 8.35365 26.2793 8.35365 24.3616V20.5949L8.35259 20.5679C8.30643 19.777 8.35729 18.9833 8.50406 18.2047C8.63006 17.7041 8.84419 17.23 9.13641 16.8047C9.62669 16.1825 10.1911 15.6228 10.8172 15.138L11.1833 14.8213L11.2142 14.8175L16.0834 10.5533C17.4812 9.31993 18.1802 8.71993 18.9623 8.4866C19.6526 8.28659 20.3854 8.28659 21.0757 8.4866C21.8578 8.71993 22.5567 9.32827 23.9546 10.5533L29.2048 15.1366Z" fill="white"/>
</svg>
